HIERARCHY
ROOT reference
{
  OFFSET 0 0 0
  CHANNELS 6 Xposition Yposition Zposition Zrotation Xrotation Yrotation
  JOINT Hips
  {
    OFFSET 366.965 89.8555 201.872
    CHANNELS 3 Zrotation Xrotation Yrotation
    JOINT RightUpLeg
    {
      OFFSET -9.27238 -1.56811 0.0123499
      CHANNELS 3 Zrotation Xrotation Yrotation
      JOINT RightLeg
      {
        OFFSET 0.00682797 -41.8882 0.0419786
        CHANNELS 3 Zrotation Xrotation Yrotation
        JOINT RightFoot
        {
          OFFSET 0.530869 -42.1265 0.242224
          CHANNELS 3 Zrotation Xrotation Yrotation
          End Site
          {
            OFFSET 0 -7.69 17.5
          }
        }
      }
    }
    JOINT LeftUpLeg
    {
      OFFSET 9.28391 -1.61639 -0.0258413
      CHANNELS 3 Zrotation Xrotation Yrotation
      JOINT LeftLeg
      {
        OFFSET 0.0291166 -41.8727 -0.014263
        CHANNELS 3 Zrotation Xrotation Yrotation
        JOINT LeftFoot
        {
          OFFSET -0.125672 -41.4933 -0.195947
          CHANNELS 3 Zrotation Xrotation Yrotation
          End Site
          {
            OFFSET 0 -7.69 17.5
          }
        }
      }
    }
    JOINT Spine
    {
      OFFSET 0.0325614 14.2957 0.0242834
      CHANNELS 3 Zrotation Xrotation Yrotation
      JOINT Spine1
      {
        OFFSET 0.00746153 9.71731 0.0172653
        CHANNELS 3 Zrotation Xrotation Yrotation
        JOINT Spine2
        {
          OFFSET 0.0283815 10.1155 -0.00252583
          CHANNELS 3 Zrotation Xrotation Yrotation
          JOINT Spine3
          {
            OFFSET 0.0279172 9.71841 -0.00465252
            CHANNELS 3 Zrotation Xrotation Yrotation
            JOINT Neck
            {
              OFFSET 0.0182001 10.3765 0.0184284
              CHANNELS 3 Zrotation Xrotation Yrotation
              JOINT Head
              {
                OFFSET 0.0113688 9.47343 0.00632939
                CHANNELS 3 Zrotation Xrotation Yrotation
                End Site
                {
                  OFFSET 0 15.95 0
                }
              }
            }
            JOINT RightShoulder
            {
              OFFSET -3.17351 6.93492 0.00767284
              CHANNELS 3 Zrotation Xrotation Yrotation
              JOINT RightArm
              {
                OFFSET -12.7835 -0.0133269 0.0174019
                CHANNELS 3 Zrotation Xrotation Yrotation
                JOINT RightForeArm
                {
                  OFFSET -26.5112 -0.0170228 0.0247955
                  CHANNELS 3 Zrotation Xrotation Yrotation
                  JOINT RightHand
                  {
                    OFFSET -25.9918 -0.0199622 0.0218897
                    CHANNELS 3 Zrotation Xrotation Yrotation
                    JOINT RightHandThumb1
                    {
                      OFFSET -2.48905 0.190105 3.12053
                      CHANNELS 3 Zrotation Xrotation Yrotation
                      JOINT RightHandThumb2
                      {
                        OFFSET -3.68274 0 0
                        CHANNELS 3 Zrotation Xrotation Yrotation
                        JOINT RightHandThumb3
                        {
                          OFFSET -2.55832 0 0
                          CHANNELS 3 Zrotation Xrotation Yrotation
                          End Site
                          {
                            OFFSET -2.194 0 0
                          }
                        }
                      }
                    }
                    JOINT RightInHandIndex
                    {
                      OFFSET -3.22368 0.508421 1.97842
                      CHANNELS 3 Zrotation Xrotation Yrotation
                      JOINT RightHandIndex1
                      {
                        OFFSET -5.21684 -0.091368 0.999158
                        CHANNELS 3 Zrotation Xrotation Yrotation
                        JOINT RightHandIndex2
                        {
                          OFFSET -3.61937 0 0
                          CHANNELS 3 Zrotation Xrotation Yrotation
                          JOINT RightHandIndex3
                          {
                            OFFSET -2.0521 0 0
                            CHANNELS 3 Zrotation Xrotation Yrotation
                            End Site
                            {
                              OFFSET -1.805 0 0
                            }
                          }
                        }
                      }
                    }
                    JOINT RightInHandMiddle
                    {
                      OFFSET -3.38211 0.517263 0.756737
                      CHANNELS 3 Zrotation Xrotation Yrotation
                      JOINT RightHandMiddle1
                      {
                        OFFSET -5.17411 -0.084 0.313895
                        CHANNELS 3 Zrotation Xrotation Yrotation
                        JOINT RightHandMiddle2
                        {
                          OFFSET -3.94947 0 0
                          CHANNELS 3 Zrotation Xrotation Yrotation
                          JOINT RightHandMiddle3
                          {
                            OFFSET -2.47579 0 0
                            CHANNELS 3 Zrotation Xrotation Yrotation
                            End Site
                            {
                              OFFSET -1.975 0 0
                            }
                          }
                        }
                      }
                    }
                    JOINT RightInHandRing
                    {
                      OFFSET -3.36516 0.537895 -0.128947
                      CHANNELS 3 Zrotation Xrotation Yrotation
                      JOINT RightHandRing1
                      {
                        OFFSET -4.63474 -0.022105 -0.478947
                        CHANNELS 3 Zrotation Xrotation Yrotation
                        JOINT RightHandRing2
                        {
                          OFFSET -3.44238 0 0
                          CHANNELS 3 Zrotation Xrotation Yrotation
                          JOINT RightHandRing3
                          {
                            OFFSET -2.3881 0 0
                            CHANNELS 3 Zrotation Xrotation Yrotation
                            End Site
                            {
                              OFFSET -1.857 0 0
                            }
                          }
                        }
                      }
                    }
                    JOINT RightInHandPinky
                    {
                      OFFSET -3.16105 0.469368 -1.20179
                      CHANNELS 3 Zrotation Xrotation Yrotation
                      JOINT RightHandPinky1
                      {
                        OFFSET -4.14105 -0.022105 -1.09053
                        CHANNELS 3 Zrotation Xrotation Yrotation
                        JOINT RightHandPinky2
                        {
                          OFFSET -2.75653 0 0
                          CHANNELS 3 Zrotation Xrotation Yrotation
                          JOINT RightHandPinky3
                          {
                            OFFSET -1.74189 0 0
                            CHANNELS 3 Zrotation Xrotation Yrotation
                            End Site
                            {
                              OFFSET -1.645 0 0
                            }
                          }
                        }
                      }
                    }
                  }
                }
              }
            }
            JOINT LeftShoulder
            {
              OFFSET 3.23633 6.91116 -0.0162332
              CHANNELS 3 Zrotation Xrotation Yrotation
              JOINT LeftArm
              {
                OFFSET 12.8112 -0.0136289 -0.0286256
                CHANNELS 3 Zrotation Xrotation Yrotation
                JOINT LeftForeArm
                {
                  OFFSET 26.502 -0.0235899 -0.00806802
                  CHANNELS 3 Zrotation Xrotation Yrotation
                  JOINT LeftHand
                  {
                    OFFSET 25.9974 -0.0321613 -0.027004
                    CHANNELS 3 Zrotation Xrotation Yrotation
                    JOINT LeftHandThumb1
                    {
                      OFFSET 2.48905 0.190105 3.12053
                      CHANNELS 3 Zrotation Xrotation Yrotation
                      JOINT LeftHandThumb2
                      {
                        OFFSET 3.68274 0 0
                        CHANNELS 3 Zrotation Xrotation Yrotation
                        JOINT LeftHandThumb3
                        {
                          OFFSET 2.55832 0 0
                          CHANNELS 3 Zrotation Xrotation Yrotation
                          End Site
                          {
                            OFFSET 2.194 0 0
                          }
                        }
                      }
                    }
                    JOINT LeftInHandIndex
                    {
                      OFFSET 3.22368 0.508421 1.97842
                      CHANNELS 3 Zrotation Xrotation Yrotation
                      JOINT LeftHandIndex1
                      {
                        OFFSET 5.21684 -0.091368 0.999158
                        CHANNELS 3 Zrotation Xrotation Yrotation
                        JOINT LeftHandIndex2
                        {
                          OFFSET 3.61937 0 0
                          CHANNELS 3 Zrotation Xrotation Yrotation
                          JOINT LeftHandIndex3
                          {
                            OFFSET 2.0521 0 0
                            CHANNELS 3 Zrotation Xrotation Yrotation
                            End Site
                            {
                              OFFSET 1.805 0 0
                            }
                          }
                        }
                      }
                    }
                    JOINT LeftInHandMiddle
                    {
                      OFFSET 3.38211 0.517263 0.756737
                      CHANNELS 3 Zrotation Xrotation Yrotation
                      JOINT LeftHandMiddle1
                      {
                        OFFSET 5.17411 -0.084 0.313895
                        CHANNELS 3 Zrotation Xrotation Yrotation
                        JOINT LeftHandMiddle2
                        {
                          OFFSET 3.94947 0 0
                          CHANNELS 3 Zrotation Xrotation Yrotation
                          JOINT LeftHandMiddle3
                          {
                            OFFSET 2.47579 0 0
                            CHANNELS 3 Zrotation Xrotation Yrotation
                            End Site
                            {
                              OFFSET 1.975 0 0
                            }
                          }
                        }
                      }
                    }
                    JOINT LeftInHandRing
                    {
                      OFFSET 3.36516 0.537895 -0.128947
                      CHANNELS 3 Zrotation Xrotation Yrotation
                      JOINT LeftHandRing1
                      {
                        OFFSET 4.63474 -0.022105 -0.478947
                        CHANNELS 3 Zrotation Xrotation Yrotation
                        JOINT LeftHandRing2
                        {
                          OFFSET 3.44238 0 0
                          CHANNELS 3 Zrotation Xrotation Yrotation
                          JOINT LeftHandRing3
                          {
                            OFFSET 2.3881 0 0
                            CHANNELS 3 Zrotation Xrotation Yrotation
                            End Site
                            {
                              OFFSET 1.857 0 0
                            }
                          }
                        }
                      }
                    }
                    JOINT LeftInHandPinky
                    {
                      OFFSET 3.16105 0.469368 -1.20179
                      CHANNELS 3 Zrotation Xrotation Yrotation
                      JOINT LeftHandPinky1
                      {
                        OFFSET 4.14105 -0.022105 -1.09053
                        CHANNELS 3 Zrotation Xrotation Yrotation
                        JOINT LeftHandPinky2
                        {
                          OFFSET 2.75653 0 0
                          CHANNELS 3 Zrotation Xrotation Yrotation
                          JOINT LeftHandPinky3
                          {
                            OFFSET 1.74189 0 0
                            CHANNELS 3 Zrotation Xrotation Yrotation
                            End Site
                            {
                              OFFSET 1.645 0 0
                            }
                          }
                        }
                      }
                    }
                  }
                }
              }
            }
          }
        }
      }
    }
  }
}
MOTION
Frames: 2
Frame Time: 0.00833333
1.500000000000000000e+02 0.000000000000000000e+00 0.000000000000000000e+00 0.000000000000000000e+00 0.000000000000000000e+00 -0.000000000000000000e+00 -7.829721231865639092e-03 6.699738530449664449e-03 1.722738725678202645e-02 -1.093155729160067216e-02 6.852991363219186616e-03 -2.242955410354637372e-02 5.949447100768318238e-03 -9.480064051166990635e-03 -3.329488386024360980e-02 -1.157543627128937436e-02 5.610490760378263921e-03 3.045872749759353723e-02 -2.374799518411364885e-02 1.875417308351869095e-02 -4.495552216118497285e-02 9.466147675273650641e-03 -2.093400479147376758e-02 -1.967729124696998479e-03 3.842801270268802853e-03 6.901139018914271769e-03 1.806770072599484661e-02 6.362083040531571303e-03 1.074461926398325405e-02 -4.653631488845505829e-03 1.231677739654459024e-03 1.638769613389025109e-03 -2.074288096171201514e-04 3.646667043960517655e-03 8.652637366341923509e-04 -1.379144489710115891e-03 -8.757335437147256534e-04 -3.452027822724293080e-04 -5.242461530472490496e-04 -9.525787322368352251e-04 -5.172689785585801768e-04 -1.567722244252288985e-04 9.547818075971534636e-04 6.878833132632294900e-03 -1.374431380295741689e-02 -2.899698343764800165e-02 -2.193236497075937153e-02 7.540339744598241641e-03 8.863403337473378663e-02 -7.313598057335339575e-02 -5.042889804232494888e-02 -2.999253285471152955e-02 1.108467205527797345e-01 -4.524435002504966635e-02 6.253034986319963573e-02 -1.858153403225933781e-02 5.940043693877455899e-02 0.000000000000000000e+00 0.000000000000000000e+00 0.000000000000000000e+00 -6.276959355711726341e-15 3.202581986649176540e-15 0.000000000000000000e+00 -7.137239226771656293e-15 7.026233365708489361e-15 0.000000000000000000e+00 3.781550621208555390e-15 8.848197850977069786e-15 4.242604017971466190e-16 0.000000000000000000e+00 0.000000000000000000e+00 0.000000000000000000e+00 0.000000000000000000e+00 -1.231464280997286353e-15 -1.218953408208637454e-14 0.000000000000000000e+00 -9.322897155688912435e-16 -1.698735512666552921e-14 3.781550621208555390e-15 8.848197850977069786e-15 4.242604017971466190e-16 0.000000000000000000e+00 -5.628728752114168215e-15 8.902146817908166284e-17 0.000000000000000000e+00 -1.135297505331228913e-14 -2.697091798633401706e-15 0.000000000000000000e+00 -1.017678820346440235e-14 4.981488740299176923e-15 3.781550621208555390e-15 8.848197850977069786e-15 4.242604017971466190e-16 0.000000000000000000e+00 0.000000000000000000e+00 0.000000000000000000e+00 0.000000000000000000e+00 1.102015051213026101e-15 -2.245024839837812189e-14 0.000000000000000000e+00 -6.411670417110149514e-15 -1.131093431978297035e-14 3.781550621208555390e-15 8.848197850977069786e-15 4.242604017971466190e-16 0.000000000000000000e+00 0.000000000000000000e+00 0.000000000000000000e+00 0.000000000000000000e+00 2.074589033653983035e-15 -1.039052459072189355e-14 0.000000000000000000e+00 -1.150062666557784208e-14 3.378530331074030214e-15 2.114620532024654234e-02 -1.062508519965844021e-02 -1.004664956929295951e-03 1.816181894200387392e-02 -3.347301862032153047e-02 -3.626294425934182414e-02 3.817293653993696911e-01 -3.490550820507252235e-03 4.097999067287182440e-01 6.016805213955524201e-02 1.730878835522448866e-01 1.269393319613641435e-01 0.000000000000000000e+00 0.000000000000000000e+00 0.000000000000000000e+00 -4.662280876068090392e-15 9.339664961973371728e-15 0.000000000000000000e+00 -6.081334887573839020e-15 6.099370783584503101e-16 0.000000000000000000e+00 5.442906861953008680e-15 -6.084275472455754330e-15 6.917015431006837932e-15 0.000000000000000000e+00 0.000000000000000000e+00 0.000000000000000000e+00 0.000000000000000000e+00 1.752869243281570018e-15 1.427579005076067883e-14 0.000000000000000000e+00 -9.523239442632918536e-15 -6.204115098995010553e-15 5.442906861953008680e-15 -6.084275472455754330e-15 6.917015431006837932e-15 0.000000000000000000e+00 -4.990585635396198785e-15 7.257299556093108674e-15 0.000000000000000000e+00 4.790540175012600383e-15 1.870793328862281735e-14 0.000000000000000000e+00 -5.018690151165872797e-15 1.521840897918892763e-14 5.442906861953008680e-15 -6.084275472455754330e-15 6.917015431006837932e-15 0.000000000000000000e+00 0.000000000000000000e+00 0.000000000000000000e+00 0.000000000000000000e+00 4.633766444274745153e-15 -1.161938072860247113e-14 0.000000000000000000e+00 6.262530330579021105e-15 -1.366738356913300339e-14 5.442906861953008680e-15 -6.084275472455754330e-15 6.917015431006837932e-15 0.000000000000000000e+00 0.000000000000000000e+00 0.000000000000000000e+00 0.000000000000000000e+00 -7.654696065196332135e-16 1.292284227465063752e-14 0.000000000000000000e+00 3.268445918137207953e-15 9.456406587381300482e-15
1.500000000000000000e+02 0.000000000000000000e+00 0.000000000000000000e+00 0.000000000000000000e+00 0.000000000000000000e+00 -0.000000000000000000e+00 -3.877872456347839815e-03 5.396767998047927520e-03 6.548229108093448284e-03 -3.496957275135230327e-03 1.527869199218372977e-03 -1.446659872739374658e-02 8.455361040742960868e-03 -6.749083399801874238e-03 -2.891938612904848549e-03 -1.314756399742673075e-02 1.758328749210848283e-03 2.027656806410786314e-03 -4.864412783773388455e-03 5.193036837878532881e-03 -1.627755720963868988e-02 2.087111188279429375e-03 -9.932404986284533790e-03 -3.297770739413630799e-03 3.180472305304161886e-03 6.465975913176646821e-03 1.100774895657045081e-02 3.575142205690543928e-03 4.095975515675697419e-03 -2.431110424084367665e-03 2.451443065490367884e-04 5.369676545501140446e-04 2.481233755499120193e-04 1.227378936947316063e-03 1.468226774780646750e-03 -4.822773444945535745e-04 -1.253825120458843066e-03 -4.693158860998952698e-04 -1.533834736974243492e-05 -1.259482339190664624e-03 -4.740105508272567689e-04 5.281556050754151541e-06 -1.299541979569864524e-02 6.073268687114372066e-03 -8.594043153870049509e-03 -7.050884850985881039e-03 -1.060989997529379614e-02 4.876690388426339201e-03 5.868377375915383165e-02 -5.571140118215620052e-02 -2.382439467513707346e-02 -4.437713682323730230e-02 8.583259716424608554e-02 -6.486477046028756022e-02 7.398984527847712878e-02 -7.690626437251611713e-02 1.067356655460214299e-01 0.000000000000000000e+00 0.000000000000000000e+00 0.000000000000000000e+00 -5.286376628292214295e-15 2.327170635035849578e-15 0.000000000000000000e+00 -1.192024721095236662e-15 5.013036738704216781e-15 0.000000000000000000e+00 2.594726968636591595e-15 3.171051373020280070e-15 -7.023597434360070165e-16 0.000000000000000000e+00 0.000000000000000000e+00 0.000000000000000000e+00 0.000000000000000000e+00 4.077858488389758422e-16 -6.741099804176460632e-15 0.000000000000000000e+00 -3.705593086862630529e-15 -5.491600938338199189e-15 2.594726968636591595e-15 3.171051373020280070e-15 -7.023597434360070165e-16 0.000000000000000000e+00 -5.478700393630517343e-15 -3.687177177504373650e-15 0.000000000000000000e+00 -4.800471678307533024e-15 4.681420145215786023e-15 0.000000000000000000e+00 -3.947357713712485847e-15 1.852160831694138307e-15 2.594726968636591595e-15 3.171051373020280070e-15 -7.023597434360070165e-16 0.000000000000000000e+00 0.000000000000000000e+00 0.000000000000000000e+00 0.000000000000000000e+00 -3.176857949913619819e-16 -7.803884353994089653e-15 0.000000000000000000e+00 -7.163961679854579261e-15 -5.030063129244338860e-15 2.594726968636591595e-15 3.171051373020280070e-15 -7.023597434360070165e-16 0.000000000000000000e+00 0.000000000000000000e+00 0.000000000000000000e+00 0.000000000000000000e+00 7.547292701653384540e-15 -9.051020169263818503e-15 0.000000000000000000e+00 1.153328000604244096e-15 2.659438589205860765e-15 6.714059537002247877e-03 -1.236333003433734944e-02 2.900441876471616335e-04 2.077243279498775658e-02 1.919188354794576371e-03 -3.221033849905175633e-02 3.729961831832054875e-01 4.657389106337841977e-02 3.714466602509085558e-01 9.770964022461084419e-02 1.560781226957028700e-01 1.646138987340903248e-01 0.000000000000000000e+00 0.000000000000000000e+00 0.000000000000000000e+00 9.110938140430383413e-18 -1.728211303877315538e-15 0.000000000000000000e+00 -2.927699411280641855e-15 -1.370288603139338712e-15 0.000000000000000000e+00 2.396256107644590633e-15 -5.288942150127718078e-15 1.039029148718516363e-15 0.000000000000000000e+00 0.000000000000000000e+00 0.000000000000000000e+00 0.000000000000000000e+00 -8.574063269936878049e-16 1.962897648172313447e-15 0.000000000000000000e+00 -4.854470862085079296e-15 1.050295354225721041e-16 2.396256107644590633e-15 -5.288942150127718078e-15 1.039029148718516363e-15 0.000000000000000000e+00 -4.879987089721118514e-16 -3.478986138239265675e-15 0.000000000000000000e+00 7.615112237139543808e-16 -1.579521805263689919e-15 0.000000000000000000e+00 -2.396670108788860996e-15 2.283279724705674367e-15 2.396256107644590633e-15 -5.288942150127718078e-15 1.039029148718516363e-15 0.000000000000000000e+00 0.000000000000000000e+00 0.000000000000000000e+00 0.000000000000000000e+00 7.567675700271470628e-15 -4.645076277013800192e-15 0.000000000000000000e+00 1.332659032674789904e-15 -2.029152789643507188e-15 2.396256107644590633e-15 -5.288942150127718078e-15 1.039029148718516363e-15 0.000000000000000000e+00 0.000000000000000000e+00 0.000000000000000000e+00 0.000000000000000000e+00 7.789157831399360100e-16 3.655939077867400696e-15 0.000000000000000000e+00 -2.873342213451035977e-15 4.703216819830452997e-15
